<svg version="1.1" id="Layer_1" xmlns="http://www.w3.org/2000/svg" xmlns:xlink="http://www.w3.org/1999/xlink" x="0px" y="0px"
	 width="100%" viewBox="0 0 512 512" enable-background="new 0 0 512 512" xml:space="preserve">
<path fill="#1565C0" opacity="1.000000" stroke="none" 
	d="
M513.000000,58.000000 
	C513.000000,190.355972 513.000000,322.711945 512.702515,455.247711 
	C508.709503,458.856201 504.461700,460.101776 499.321320,460.090668 
	C434.998688,459.951782 370.675690,459.999664 306.352783,459.999664 
	C304.402588,459.999664 302.452393,459.999695 299.999634,459.999695 
	C299.999634,470.656891 300.006226,480.776978 299.997650,490.897095 
	C299.990326,499.540466 293.669098,504.427795 285.301758,502.716705 
	C277.930542,501.209320 270.463531,500.154205 263.021149,499.014862 
	C251.192230,497.204041 239.337692,495.559174 227.514297,493.714020 
	C215.868347,491.896576 204.264801,489.804108 192.611481,488.037994 
	C178.352402,485.877014 164.046799,484.022888 149.787292,481.864471 
	C135.385376,479.684448 121.023163,477.243317 106.628662,475.012634 
	C94.970413,473.205994 83.277245,471.623474 71.623169,469.791473 
	C59.985035,467.962006 48.368809,465.989288 36.756607,463.999847 
	C24.705475,461.935181 12.112324,462.266968 1.000000,456.000000 
	C1.000000,330.977356 1.000000,205.954727 1.307602,80.728401 
	C4.915020,78.675545 8.017362,76.149574 11.555509,75.117210 
	C19.063135,72.926613 26.807779,71.556892 34.437500,69.774635 
	C62.572056,63.202572 90.679893,56.514950 118.834534,50.030357 
	C151.287125,42.555859 183.788223,35.292198 216.250000,27.857246 
	C239.322128,22.572876 262.364563,17.158749 285.419159,11.797900 
	C293.994171,9.803968 299.951080,14.439622 299.989105,23.231478 
	C300.032806,33.335133 299.999268,43.439125 299.999268,53.999897 
	C302.533081,53.999897 304.495728,53.999893 306.458344,53.999893 
	C365.577667,53.999901 424.697174,53.922497 483.816071,54.076248 
	C493.650421,54.101822 503.938812,51.802456 513.000000,58.000000 
M396.500000,374.000000 
	C417.164062,374.000000 437.828094,373.987579 458.492157,374.006683 
	C465.948212,374.013580 470.961273,378.494019 471.010406,384.979584 
	C471.055206,390.890381 465.488983,396.229309 458.663879,396.183746 
	C407.838684,395.844421 357.010162,395.999603 306.182709,395.999695 
	C304.248627,395.999695 302.314575,395.999695 300.421539,395.999695 
	C300.421539,410.378082 300.421539,424.086456 300.421539,437.672272 
	C364.096039,437.672272 427.348267,437.672272 490.596558,437.672272 
	C490.596558,316.978851 490.596558,196.613617 490.596558,76.309166 
	C426.940460,76.309166 363.688324,76.309166 300.398132,76.309166 
	C300.398132,90.330551 300.398132,104.038750 300.398132,117.999916 
	C302.782562,117.999916 304.769684,117.999916 306.756805,117.999916 
	C357.250977,117.999939 407.745117,118.005592 458.239288,117.990295 
	C462.728241,117.988930 466.639160,118.782127 469.091583,123.224335 
	C473.709869,131.589691 468.962189,139.990540 459.417908,139.993027 
	C408.257141,140.006409 357.096405,139.999542 305.935638,139.999680 
	C304.025360,139.999680 302.115082,139.999680 300.332153,139.999680 
	C300.332153,154.433350 300.332153,168.024307 300.332153,181.999924 
	C302.630676,181.999924 304.600433,181.999924 306.570190,181.999924 
	C357.230988,181.999985 407.891815,181.993607 458.552612,182.007156 
	C465.977783,182.009140 471.000977,186.550720 471.009369,193.040146 
	C471.016937,198.884216 465.550995,204.229141 458.603424,204.182678 
	C407.778229,203.842758 356.949707,203.999588 306.122253,203.999664 
	C304.193970,203.999664 302.265686,203.999664 300.266174,203.999664 
	C300.266174,218.299164 300.266174,231.888596 300.266174,245.999908 
	C302.477600,245.999908 304.430573,245.999924 306.383545,245.999924 
	C357.044373,245.999954 407.705170,245.995163 458.365997,246.005203 
	C465.905029,246.006699 470.878662,250.354813 471.010498,256.853241 
	C471.122833,262.388794 466.100189,268.242310 458.289978,268.186218 
	C407.631775,267.822235 356.969696,267.999634 306.308868,267.999695 
	C304.362701,267.999695 302.416565,267.999695 300.376953,267.999695 
	C300.376953,282.287018 300.376953,295.994720 300.376953,309.999969 
	C302.731323,309.999969 304.714111,309.999969 306.696899,309.999969 
	C357.191071,309.999969 407.685211,310.012329 458.179352,309.976990 
	C462.323914,309.974060 466.057861,310.667786 468.647888,314.277130 
	C471.386810,318.093933 471.976471,322.354980 469.694794,326.357330 
	C467.465820,330.267212 463.919800,332.108917 458.977600,332.093994 
	C407.983948,331.940063 356.989655,331.999603 305.995544,331.999695 
	C304.079468,331.999695 302.163422,331.999695 300.310974,331.999695 
	C300.310974,346.390289 300.310974,359.980560 300.310974,374.000000 
	C332.246826,374.000000 363.873413,374.000000 396.500000,374.000000 
M211.243546,279.880798 
	C214.316223,269.173340 217.389328,258.466003 220.461533,247.758408 
	C225.230225,231.137939 230.043442,214.530045 234.747025,197.891174 
	C237.001831,189.914810 233.683838,183.838211 226.609558,182.588638 
	C220.712402,181.546967 216.213791,184.929672 214.152786,192.124588 
	C208.383621,212.264465 202.675583,232.421875 196.920517,252.565826 
	C192.229767,268.984406 187.505951,285.393524 182.495117,302.858215 
	C181.705307,300.608917 181.216522,299.410034 180.860428,298.172974 
	C177.226990,285.550934 173.605377,272.925476 169.999420,260.295563 
	C163.609177,237.913651 157.245560,215.524124 150.842377,193.145920 
	C148.528183,185.058167 141.969604,180.890274 135.627609,184.324127 
	C132.668793,185.926178 129.844452,189.530136 128.881073,192.793991 
	C118.715652,227.234161 108.940521,261.789490 99.047760,296.310211 
	C98.550430,298.045654 97.961952,299.754944 97.415909,301.476410 
	C89.585518,277.571777 82.807175,253.928421 76.047745,230.279663 
	C72.301003,217.171204 68.629135,204.041153 64.836021,190.946198 
	C63.229664,185.400574 59.520103,182.184341 54.665009,182.120392 
	C50.104790,182.060318 46.183578,183.983490 44.813610,188.337189 
	C43.887318,191.280884 43.943443,194.965469 44.791519,197.971252 
	C58.382187,246.139771 72.167984,294.253265 85.918991,342.376495 
	C87.789703,348.923279 91.353348,352.030975 96.916748,352.057953 
	C102.497475,352.084991 106.193764,348.943268 108.035118,342.513123 
	C114.718025,319.176086 121.376923,295.832123 128.055115,272.493744 
	C131.769806,259.511932 135.504745,246.535965 139.552780,232.434937 
	C140.347412,234.838806 140.800171,236.061478 141.157700,237.311371 
	C151.171478,272.318054 161.171555,307.328644 171.184601,342.335541 
	C173.313705,349.779144 176.830933,353.076569 182.473618,352.998627 
	C187.990494,352.922455 191.267593,349.816620 193.357697,342.531738 
	C199.272583,321.915710 205.156387,301.290802 211.243546,279.880798 
z"/>
<path fill="#000000" opacity="1.000000" stroke="none" 
	d="
M513.000000,57.531342 
	C503.938812,51.802456 493.650421,54.101822 483.816071,54.076248 
	C424.697174,53.922497 365.577667,53.999901 306.458344,53.999893 
	C304.495728,53.999893 302.533081,53.999897 299.999268,53.999897 
	C299.999268,43.439125 300.032806,33.335133 299.989105,23.231478 
	C299.951080,14.439622 293.994171,9.803968 285.419159,11.797900 
	C262.364563,17.158749 239.322128,22.572876 216.250000,27.857246 
	C183.788223,35.292198 151.287125,42.555859 118.834534,50.030357 
	C90.679893,56.514950 62.572056,63.202572 34.437500,69.774635 
	C26.807779,71.556892 19.063135,72.926613 11.555509,75.117210 
	C8.017362,76.149574 4.915020,78.675545 1.307602,80.262360 
	C1.000000,53.684444 1.000000,27.368887 1.000002,1.051838 
	C171.666672,1.050344 342.333344,1.050344 513.000000,1.050344 
	C513.000000,19.754686 513.000000,38.408684 513.000000,57.531342 
z"/>
<path fill="#000000" opacity="1.000000" stroke="none" 
	d="
M1.000000,456.468658 
	C12.112324,462.266968 24.705475,461.935181 36.756607,463.999847 
	C48.368809,465.989288 59.985035,467.962006 71.623169,469.791473 
	C83.277245,471.623474 94.970413,473.205994 106.628662,475.012634 
	C121.023163,477.243317 135.385376,479.684448 149.787292,481.864471 
	C164.046799,484.022888 178.352402,485.877014 192.611481,488.037994 
	C204.264801,489.804108 215.868347,491.896576 227.514297,493.714020 
	C239.337692,495.559174 251.192230,497.204041 263.021149,499.014862 
	C270.463531,500.154205 277.930542,501.209320 285.301758,502.716705 
	C293.669098,504.427795 299.990326,499.540466 299.997650,490.897095 
	C300.006226,480.776978 299.999634,470.656891 299.999634,459.999695 
	C302.452393,459.999695 304.402588,459.999664 306.352783,459.999664 
	C370.675690,459.999664 434.998688,459.951782 499.321320,460.090668 
	C504.461700,460.101776 508.709503,458.856201 512.702515,455.713745 
	C513.000000,474.986725 513.000000,493.973419 513.000000,512.954651 
	C342.333313,512.949158 171.666656,512.949158 1.000000,512.949158 
	C1.000000,494.244659 1.000000,475.590973 1.000000,456.468658 
z"/>
<path fill="#000000" opacity="1.000000" stroke="none" 
	d="
M396.000000,374.000000 
	C363.873413,374.000000 332.246826,374.000000 300.310974,374.000000 
	C300.310974,359.980560 300.310974,346.390289 300.310974,331.999695 
	C302.163422,331.999695 304.079468,331.999695 305.995544,331.999695 
	C356.989655,331.999603 407.983948,331.940063 458.977600,332.093994 
	C463.919800,332.108917 467.465820,330.267212 469.694794,326.357330 
	C471.976471,322.354980 471.386810,318.093933 468.647888,314.277130 
	C466.057861,310.667786 462.323914,309.974060 458.179352,309.976990 
	C407.685211,310.012329 357.191071,309.999969 306.696899,309.999969 
	C304.714111,309.999969 302.731323,309.999969 300.376953,309.999969 
	C300.376953,295.994720 300.376953,282.287018 300.376953,267.999695 
	C302.416565,267.999695 304.362701,267.999695 306.308868,267.999695 
	C356.969696,267.999634 407.631775,267.822235 458.289978,268.186218 
	C466.100189,268.242310 471.122833,262.388794 471.010498,256.853241 
	C470.878662,250.354813 465.905029,246.006699 458.365997,246.005203 
	C407.705170,245.995163 357.044373,245.999954 306.383545,245.999924 
	C304.430573,245.999924 302.477600,245.999908 300.266174,245.999908 
	C300.266174,231.888596 300.266174,218.299164 300.266174,203.999664 
	C302.265686,203.999664 304.193970,203.999664 306.122253,203.999664 
	C356.949707,203.999588 407.778229,203.842758 458.603424,204.182678 
	C465.550995,204.229141 471.016937,198.884216 471.009369,193.040146 
	C471.000977,186.550720 465.977783,182.009140 458.552612,182.007156 
	C407.891815,181.993607 357.230988,181.999985 306.570190,181.999924 
	C304.600433,181.999924 302.630676,181.999924 300.332153,181.999924 
	C300.332153,168.024307 300.332153,154.433350 300.332153,139.999680 
	C302.115082,139.999680 304.025360,139.999680 305.935638,139.999680 
	C357.096405,139.999542 408.257141,140.006409 459.417908,139.993027 
	C468.962189,139.990540 473.709869,131.589691 469.091583,123.224335 
	C466.639160,118.782127 462.728241,117.988930 458.239288,117.990295 
	C407.745117,118.005592 357.250977,117.999939 306.756805,117.999916 
	C304.769684,117.999916 302.782562,117.999916 300.398132,117.999916 
	C300.398132,104.038750 300.398132,90.330551 300.398132,76.309166 
	C363.688324,76.309166 426.940460,76.309166 490.596558,76.309166 
	C490.596558,196.613617 490.596558,316.978851 490.596558,437.672272 
	C427.348267,437.672272 364.096039,437.672272 300.421539,437.672272 
	C300.421539,424.086456 300.421539,410.378082 300.421539,395.999695 
	C302.314575,395.999695 304.248627,395.999695 306.182709,395.999695 
	C357.010162,395.999603 407.838684,395.844421 458.663879,396.183746 
	C465.488983,396.229309 471.055206,390.890381 471.010406,384.979584 
	C470.961273,378.494019 465.948212,374.013580 458.492157,374.006683 
	C437.828094,373.987579 417.164062,374.000000 396.000000,374.000000 
z"/>
<path fill="#F7F8F9" opacity="1.000000" stroke="none" 
	d="
M211.147995,280.275085 
	C205.156387,301.290802 199.272583,321.915710 193.357697,342.531738 
	C191.267593,349.816620 187.990494,352.922455 182.473618,352.998627 
	C176.830933,353.076569 173.313705,349.779144 171.184601,342.335541 
	C161.171555,307.328644 151.171478,272.318054 141.157700,237.311371 
	C140.800171,236.061478 140.347412,234.838806 139.552780,232.434937 
	C135.504745,246.535965 131.769806,259.511932 128.055115,272.493744 
	C121.376923,295.832123 114.718025,319.176086 108.035118,342.513123 
	C106.193764,348.943268 102.497475,352.084991 96.916748,352.057953 
	C91.353348,352.030975 87.789703,348.923279 85.918991,342.376495 
	C72.167984,294.253265 58.382187,246.139771 44.791519,197.971252 
	C43.943443,194.965469 43.887318,191.280884 44.813610,188.337189 
	C46.183578,183.983490 50.104790,182.060318 54.665009,182.120392 
	C59.520103,182.184341 63.229664,185.400574 64.836021,190.946198 
	C68.629135,204.041153 72.301003,217.171204 76.047745,230.279663 
	C82.807175,253.928421 89.585518,277.571777 97.415909,301.476410 
	C97.961952,299.754944 98.550430,298.045654 99.047760,296.310211 
	C108.940521,261.789490 118.715652,227.234161 128.881073,192.793991 
	C129.844452,189.530136 132.668793,185.926178 135.627609,184.324127 
	C141.969604,180.890274 148.528183,185.058167 150.842377,193.145920 
	C157.245560,215.524124 163.609177,237.913651 169.999420,260.295563 
	C173.605377,272.925476 177.226990,285.550934 180.860428,298.172974 
	C181.216522,299.410034 181.705307,300.608917 182.495117,302.858215 
	C187.505951,285.393524 192.229767,268.984406 196.920517,252.565826 
	C202.675583,232.421875 208.383621,212.264465 214.152786,192.124588 
	C216.213791,184.929672 220.712402,181.546967 226.609558,182.588638 
	C233.683838,183.838211 237.001831,189.914810 234.747025,197.891174 
	C230.043442,214.530045 225.230225,231.137939 220.461533,247.758408 
	C217.389328,258.466003 214.316223,269.173340 211.147995,280.275085 
z"/>
</svg>